# xmcd
#
# Track frame offsets:
# 150
# 19032
# 44045
# 72867
# 94677
# 117200
# 141855
# 155157
# 172420
# 196580
# 218275
# 241872
# 261170
#
# Disc length: 3984 seconds
#
#
# Revision: 4
# Processed by: cddbd v1.5.1PL0 Copyright (c) Steve Scherf et al.
# Submitted via: FreeRIP 2.942 
#
DISCID=b50f8e0d
DTITLE=Willi Michl - Ois Is Blues
DYEAR=1900
DGENRE=Blues
TTITLE0=Sonnenuntergang
TTITLE1=Ois Is Blues
TTITLE2=Der Falk
TTITLE3=Isarflimmern
TTITLE4=Frühlingsreggea
TTITLE5=Herbstlied
TTITLE6=Wakantanka
TTITLE7=Teufelstanz
TTITLE8=Der Tausendjährige Eskimo
TTITLE9=Die 5 Dimensionen
TTITLE10=Katmandu
TTITLE11=Das Land Nepal
TTITLE12=Epilog
EXTD=
EXTT0=
EXTT1=
EXTT2=
EXTT3=
EXTT4=
EXTT5=
EXTT6=
EXTT7=
EXTT8=
EXTT9=
EXTT10=
EXTT11=
EXTT12=
PLAYORDER=
